<svg width="118" height="30" viewBox="0 0 118 30" fill="none" xmlns="http://www.w3.org/2000/svg">
<path d="M7.95455 24H1.79332V5.81818H8.07884C9.884 5.81818 11.4347 6.18217 12.7308 6.91016C14.0329 7.63222 15.0331 8.67093 15.7315 10.0263C16.4299 11.3816 16.7791 13.0033 16.7791 14.8913C16.7791 16.7853 16.427 18.4129 15.7227 19.7741C15.0243 21.1354 14.0152 22.18 12.6953 22.908C11.3814 23.636 9.80114 24 7.95455 24ZM5.087 21.1502H7.79474C9.06132 21.1502 10.1178 20.9194 10.9641 20.4577C11.8105 19.9902 12.4467 19.2947 12.8729 18.3714C13.299 17.4422 13.5121 16.2822 13.5121 14.8913C13.5121 13.5005 13.299 12.3464 12.8729 11.429C12.4467 10.5057 11.8164 9.81617 10.9819 9.36044C10.1533 8.89879 9.12346 8.66797 7.8924 8.66797H5.087V21.1502ZM25.8034 24.2663C24.4363 24.2663 23.2555 23.9822 22.2612 23.4141C21.2728 22.84 20.5123 22.0291 19.9796 20.9815C19.4469 19.928 19.1806 18.6881 19.1806 17.2617C19.1806 15.859 19.4469 14.628 19.9796 13.5685C20.5182 12.5032 21.2698 11.6746 22.2346 11.0827C23.1993 10.485 24.3327 10.1861 25.6348 10.1861C26.4752 10.1861 27.2683 10.3222 28.014 10.5945C28.7657 10.8608 29.4286 11.2751 30.0027 11.8374C30.5827 12.3996 31.0384 13.1158 31.3699 13.9858C31.7013 14.8499 31.867 15.8797 31.867 17.0753V18.0607H20.6898V15.8945H28.7864C28.7805 15.279 28.6473 14.7315 28.3869 14.2521C28.1265 13.7668 27.7625 13.3851 27.2949 13.1069C26.8333 12.8287 26.2947 12.6896 25.6792 12.6896C25.0222 12.6896 24.4451 12.8494 23.948 13.169C23.4508 13.4827 23.0632 13.897 22.785 14.4119C22.5127 14.9209 22.3736 15.4802 22.3677 16.0898V17.9808C22.3677 18.7739 22.5127 19.4545 22.8027 20.0227C23.0927 20.585 23.4982 21.017 24.019 21.3189C24.5398 21.6148 25.1494 21.7628 25.8478 21.7628C26.3154 21.7628 26.7386 21.6977 27.1174 21.5675C27.4962 21.4313 27.8246 21.2331 28.1028 20.9727C28.381 20.7122 28.5911 20.3897 28.7331 20.005L31.7338 20.3423C31.5444 21.1354 31.1834 21.8279 30.6507 22.4197C30.124 23.0057 29.4493 23.4614 28.6266 23.7869C27.8039 24.1065 26.8629 24.2663 25.8034 24.2663ZM40.6228 24.2663C39.2556 24.2663 38.0748 23.9822 37.0805 23.4141C36.0921 22.84 35.3316 22.0291 34.7989 20.9815C34.2662 19.928 33.9999 18.6881 33.9999 17.2617C33.9999 15.859 34.2662 14.628 34.7989 13.5685C35.3375 12.5032 36.0892 11.6746 37.0539 11.0827C38.0186 10.485 39.152 10.1861 40.4541 10.1861C41.2945 10.1861 42.0876 10.3222 42.8334 10.5945C43.585 10.8608 44.2479 11.2751 44.822 11.8374C45.402 12.3996 45.8577 13.1158 46.1892 13.9858C46.5206 14.8499 46.6863 15.8797 46.6863 17.0753V18.0607H35.5091V15.8945H43.6057C43.5998 15.279 43.4666 14.7315 43.2062 14.2521C42.9458 13.7668 42.5818 13.3851 42.1143 13.1069C41.6526 12.8287 41.114 12.6896 40.4985 12.6896C39.8415 12.6896 39.2645 12.8494 38.7673 13.169C38.2702 13.4827 37.8825 13.897 37.6043 14.4119C37.3321 14.9209 37.193 15.4802 37.1871 16.0898V17.9808C37.1871 18.7739 37.3321 19.4545 37.6221 20.0227C37.9121 20.585 38.3175 21.017 38.8383 21.3189C39.3592 21.6148 39.9688 21.7628 40.6672 21.7628C41.1347 21.7628 41.5579 21.6977 41.9367 21.5675C42.3155 21.4313 42.644 21.2331 42.9221 20.9727C43.2003 20.7122 43.4104 20.3897 43.5525 20.005L46.5532 20.3423C46.3638 21.1354 46.0028 21.8279 45.4701 22.4197C44.9433 23.0057 44.2686 23.4614 43.4459 23.7869C42.6233 24.1065 41.6822 24.2663 40.6228 24.2663ZM49.4052 29.1136V10.3636H52.5657V12.6186H52.7521C52.9179 12.2872 53.1516 11.935 53.4535 11.5621C53.7553 11.1834 54.1637 10.8608 54.6786 10.5945C55.1935 10.3222 55.8505 10.1861 56.6495 10.1861C57.703 10.1861 58.6529 10.4554 59.4993 10.994C60.3516 11.5266 61.0263 12.3168 61.5234 13.3643C62.0265 14.406 62.2781 15.6844 62.2781 17.1996C62.2781 18.697 62.0324 19.9695 61.5412 21.017C61.05 22.0646 60.3812 22.8636 59.5348 23.4141C58.6884 23.9645 57.7296 24.2397 56.6584 24.2397C55.8771 24.2397 55.229 24.1095 54.7141 23.8491C54.1992 23.5887 53.7849 23.275 53.4712 22.908C53.1635 22.5352 52.9238 22.183 52.7521 21.8516H52.619V29.1136H49.4052ZM52.5568 17.1818C52.5568 18.0637 52.6811 18.8361 52.9297 19.4989C53.1842 20.1618 53.5482 20.6797 54.0217 21.0526C54.5011 21.4195 55.0811 21.603 55.7617 21.603C56.4719 21.603 57.0668 21.4136 57.5462 21.0348C58.0256 20.6501 58.3866 20.1263 58.6293 19.4634C58.8778 18.7946 59.0021 18.0341 59.0021 17.1818C59.0021 16.3355 58.8808 15.5838 58.6381 14.9268C58.3955 14.2699 58.0344 13.755 57.555 13.3821C57.0756 13.0092 56.4779 12.8228 55.7617 12.8228C55.0752 12.8228 54.4922 13.0033 54.0128 13.3643C53.5334 13.7254 53.1694 14.2314 52.9208 14.8825C52.6781 15.5335 52.5568 16.3 52.5568 17.1818Z" fill="white"/>
<path d="M64.4418 10.3636V12.8494H72.5028V10.3636H64.4418ZM70.4876 24V9.07635C70.4876 8.15897 70.2982 7.39548 69.9194 6.78587C69.5347 6.17625 69.0198 5.72053 68.3746 5.41868C67.7295 5.11683 67.0134 4.96591 66.2262 4.96591C65.6699 4.96591 65.1757 5.0103 64.7436 5.09908C64.3116 5.18785 63.992 5.26776 63.7848 5.33878L64.424 7.82457C64.5601 7.78314 64.7318 7.74171 64.9389 7.70028C65.1461 7.65293 65.3769 7.62926 65.6314 7.62926C66.2292 7.62926 66.6523 7.77427 66.9009 8.06428C67.1436 8.34837 67.2649 8.75675 67.2649 9.28942V24H70.4876Z" fill="#E50914"/>
<path d="M78.5753 24.2752C77.7112 24.2752 76.9329 24.1213 76.2404 23.8136C75.5539 23.4999 75.0094 23.0382 74.6069 22.4286C74.2103 21.819 74.0121 21.0674 74.0121 20.1737C74.0121 19.4042 74.1541 18.768 74.4382 18.2649C74.7223 17.7618 75.11 17.3594 75.6012 17.0575C76.0924 16.7557 76.6458 16.5278 77.2614 16.3739C77.8828 16.2141 78.525 16.0987 79.1879 16.0277C79.9869 15.9448 80.6349 15.8709 81.1321 15.8058C81.6293 15.7347 81.9903 15.6282 82.2152 15.4862C82.446 15.3382 82.5614 15.1103 82.5614 14.8026V14.7493C82.5614 14.0805 82.3632 13.5626 81.9666 13.1957C81.5701 12.8287 80.9989 12.6452 80.2532 12.6452C79.466 12.6452 78.8416 12.8169 78.38 13.1602C77.9242 13.5034 77.6165 13.9089 77.4567 14.3764L74.456 13.9503C74.6927 13.1217 75.0833 12.4292 75.6278 11.8729C76.1723 11.3106 76.8382 10.8904 77.6254 10.6122C78.4125 10.3281 79.2826 10.1861 80.2354 10.1861C80.8924 10.1861 81.5464 10.263 82.1974 10.4169C82.8485 10.5708 83.4433 10.8253 83.9819 11.1804C84.5205 11.5296 84.9525 12.006 85.2781 12.6097C85.6095 13.2134 85.7752 13.968 85.7752 14.8736V24H82.6857V22.1268H82.5792C82.3839 22.5056 82.1087 22.8607 81.7536 23.1921C81.4044 23.5176 80.9634 23.781 80.4308 23.9822C79.904 24.1776 79.2855 24.2752 78.5753 24.2752ZM79.4098 21.9137C80.0549 21.9137 80.6142 21.7865 81.0877 21.532C81.5612 21.2715 81.9252 20.9283 82.1797 20.5021C82.4401 20.076 82.5703 19.6114 82.5703 19.1083V17.5014C82.4697 17.5843 82.2981 17.6612 82.0554 17.7322C81.8187 17.8033 81.5523 17.8654 81.2564 17.9187C80.9605 17.9719 80.6675 18.0193 80.3775 18.0607C80.0875 18.1022 79.8359 18.1377 79.6229 18.1673C79.1435 18.2324 78.7144 18.3389 78.3356 18.4869C77.9568 18.6348 77.6579 18.842 77.4389 19.1083C77.2199 19.3687 77.1104 19.7061 77.1104 20.1204C77.1104 20.7122 77.3265 21.1591 77.7585 21.4609C78.1906 21.7628 78.741 21.9137 79.4098 21.9137Z" fill="#E50914"/>
<path d="M98.419 19.7209L98.4279 15.8413H97.913L93.0124 10.3636H89.2571L95.2852 17.0753H95.951L98.419 19.7209ZM101.349 24V5.81818H98.1349V24H101.349ZM92.7905 24L97.2294 17.7944L95.0632 15.5305L88.9464 24H92.7905Z" fill="#E50914"/>
<path d="M110.312 24.2663C111.679 24.2663 112.86 23.9822 113.854 23.4141C114.842 22.84 115.603 22.0291 116.136 20.9815C116.668 19.928 116.935 18.6881 116.935 17.2617C116.935 15.859 116.668 14.628 116.136 13.5685C115.597 12.5032 114.845 11.6746 113.881 11.0827C112.916 10.485 111.783 10.1861 110.48 10.1861C109.64 10.1861 108.847 10.3222 108.101 10.5945C107.35 10.8608 106.687 11.2751 106.113 11.8374C105.533 12.3996 105.077 13.1158 104.745 13.9858C104.414 14.8499 104.248 15.8797 104.248 17.0753V18.0607H115.425V15.8945H107.329C107.335 15.279 107.468 14.7315 107.728 14.2521C107.989 13.7668 108.353 13.3851 108.82 13.1069C109.282 12.8287 109.821 12.6896 110.436 12.6896C111.093 12.6896 111.67 12.8494 112.167 13.169C112.664 13.4827 113.052 13.897 113.33 14.4119C113.603 14.9209 113.742 15.4802 113.748 16.0898V17.9808C113.748 18.7739 113.603 19.4545 113.312 20.0227C113.022 20.585 112.617 21.017 112.096 21.3189C111.575 21.6148 110.966 21.7628 110.267 21.7628C109.8 21.7628 109.377 21.6977 108.998 21.5675C108.619 21.4313 108.291 21.2331 108.012 20.9727C107.734 20.7122 107.524 20.3897 107.382 20.005L104.381 20.3423C104.571 21.1354 104.932 21.8279 105.464 22.4197C105.991 23.0057 106.666 23.4614 107.489 23.7869C108.311 24.1065 109.252 24.2663 110.312 24.2663Z" fill="#E50914"/>
</svg>
